<?xml version="1.0" encoding="UTF-8" standalone="no"?>
<svg
   width="173.32993mm"
   height="34.154125mm"
   viewBox="0 0 173.32993 34.154125"
   version="1.1"
   id="svg5"
   xml:space="preserve"
   sodipodi:docname="cellular_raza_dark_mode-2.svg"
   xmlns:sodipodi="http://sodipodi.sourceforge.net/DTD/sodipodi-0.dtd"
   xmlns="http://www.w3.org/2000/svg"
   xmlns:svg="http://www.w3.org/2000/svg"><defs
   id="defs9" />
  <sodipodi:namedview
   id="namedview7"
   pagecolor="#505050"
   bordercolor="#eeeeee"
   borderopacity="1"
   showgrid="false"/>
  <path
   style="fill:#000000;"
   d="m 29.327567,120.8642 c -0.246944,-3.25966 -2.395357,-5.21052 -5.753795,-5.21052 -4.000493,0 -6.297072,2.61761 -6.297072,7.16138 0,4.3956 2.296579,6.96382 6.247683,6.96382 3.234966,0 5.482157,-2.00025 5.803184,-5.18583 h -3.30905 c -0.419804,1.72861 -1.111248,2.39536 -2.494134,2.39536 -1.753303,0 -2.790467,-1.55575 -2.790467,-4.17335 0,-1.28411 0.246944,-2.44475 0.666748,-3.23497 0.395111,-0.74083 1.160637,-1.13594 2.148413,-1.13594 1.407581,0 2.07433,0.66675 2.46944,2.42005 z m 13.95233,2.76577 c 0.02469,-0.29633 0.02469,-0.4198 0.02469,-0.59266 0,-1.3335 -0.197555,-2.56822 -0.518582,-3.50661 -0.888999,-2.42005 -3.037412,-3.87702 -5.729101,-3.87702 -3.827632,0 -6.173601,2.76577 -6.173601,7.23546 0,4.27213 2.321274,6.88974 6.099517,6.88974 2.988023,0 5.408074,-1.67922 6.173601,-4.32152 h -3.407828 c -0.419804,1.06186 -1.382886,1.67922 -2.642301,1.67922 -0.987776,0 -1.777996,-0.41981 -2.271884,-1.16064 -0.321028,-0.49389 -0.4445,-1.08655 -0.493888,-2.34597 z m -8.889985,-2.29658 c 0.22225,-2.04963 1.086554,-3.03741 2.617607,-3.03741 1.580442,0 2.518829,1.06186 2.69169,3.03741 z m 14.816622,-10.1247 h -3.457216 v 18.00222 h 3.457216 z m 6.86504,0 h -3.457216 v 18.00222 h 3.457216 z m 15.11297,18.00222 v -13.33498 h -3.457216 v 8.34671 c 0,1.58044 -1.086554,2.6176 -2.790468,2.6176 -1.481664,0 -2.222496,-0.79022 -2.222496,-2.39535 v -8.56896 h -3.457216 v 9.2851 c 0,2.96332 1.605136,4.61785 4.469687,4.61785 1.802691,0 3.012717,-0.64206 4.000493,-2.14841 v 1.58044 z m 6.84035,-18.00222 h -3.457216 v 18.00222 h 3.457216 z m 14.693165,17.58241 c -0.592666,-0.56797 -0.790221,-0.96308 -0.790221,-1.62983 v -7.40832 c 0,-2.71638 -1.85208,-4.09927 -5.457463,-4.09927 -3.605382,0 -5.482157,1.53105 -5.704406,4.61785 h 3.333744 c 0.17286,-1.38288 0.740832,-1.82738 2.444745,-1.82738 1.333498,0 2.000247,0.4445 2.000247,1.3335 0,0.4445 -0.22225,0.81491 -0.592666,1.03716 -0.469193,0.24694 -0.469193,0.24694 -2.173107,0.51858 l -1.382887,0.24695 c -2.6423,0.4445 -3.926409,1.80269 -3.926409,4.19805 0,2.39535 1.605136,4.00049 4.049881,4.00049 1.481665,0 2.815162,-0.61736 4.049882,-1.90147 0,0.69144 0.07408,0.93839 0.395111,1.3335 h 3.753549 z m -4.173354,-4.93888 c 0,2.00025 -0.987776,3.13619 -2.741079,3.13619 -1.160637,0 -1.876774,-0.61736 -1.876774,-1.60514 0,-1.03716 0.543277,-1.53105 1.975552,-1.82738 l 1.185331,-0.22225 c 0.913693,-0.17286 1.061859,-0.22225 1.45697,-0.41981 z m 6.519314,-7.97629 v 13.33498 h 3.457217 v -7.0873 c 0,-2.02494 1.01247,-3.03741 3.037414,-3.03741 0.37041,0 0.61736,0.0247 1.08655,0.0988 v -3.5066 c -0.19755,-0.0247 -0.27164,-0.0247 -0.4198,-0.0247 -1.58045,0 -2.938638,1.03717 -3.704164,2.83986 v -2.61761 z m 22.323741,16.29831 h -14.81664 v 1.70391 h 14.81664 z"
   id="text197"
   transform="translate(-17.2767,-105.46635)"
   aria-label="cellular_" /><g
   id="layer1"
   transform="translate(-17.2767,-105.46635)"
   style="fill:#000000;">
    <g
   id="g141"
   transform="matrix(1.0673056,0,0,1.0673056,99.490901,88.389584)"
   style="fill:#000000;">
   <path
   d="M 47.781,31.608 46.438,30.776 A 18.57,18.57 0 0 0 46.4,30.385 l 1.154,-1.077 A 0.46,0.46 0 0 0 47.401,28.537 L 45.925,27.985 A 16.798,16.798 0 0 0 45.81,27.604 l 0.92,-1.279 a 0.462,0.462 0 0 0 -0.3,-0.727 l -1.557,-0.253 c -0.06,-0.118 -0.123,-0.234 -0.187,-0.35 L 45.34,23.56 a 0.46,0.46 0 0 0 -0.437,-0.654 l -1.579,0.055 a 12.482,12.482 0 0 0 -0.25,-0.302 l 0.363,-1.539 a 0.461,0.461 0 0 0 -0.556,-0.556 l -1.538,0.362 c -0.1,-0.084 -0.2,-0.167 -0.303,-0.25 l 0.055,-1.578 a 0.46,0.46 0 0 0 -0.654,-0.437 l -1.435,0.654 a 16.712,16.712 0 0 0 -0.35,-0.188 L 38.403,17.571 A 0.462,0.462 0 0 0 37.677,17.27 l -1.28,0.92 a 14.31,14.31 0 0 0 -0.38,-0.115 l -0.552,-1.476 a 0.461,0.461 0 0 0 -0.771,-0.154 l -1.077,1.156 c -0.13,-0.014 -0.26,-0.028 -0.391,-0.038 l -0.832,-1.344 a 0.462,0.462 0 0 0 -0.786,0 l -0.832,1.344 c -0.13,0.01 -0.261,0.024 -0.391,0.038 l -1.077,-1.155 a 0.464,0.464 0 0 0 -0.771,0.153 l -0.552,1.476 c -0.128,0.037 -0.255,0.076 -0.38,0.116 l -1.28,-0.921 a 0.46,0.46 0 0 0 -0.727,0.3 l -0.254,1.557 c -0.117,0.061 -0.233,0.124 -0.35,0.188 L 23.56,18.661 a 0.46,0.46 0 0 0 -0.654,0.436 l 0.055,1.58 c -0.102,0.082 -0.203,0.165 -0.303,0.25 L 21.12,20.564 a 0.464,0.464 0 0 0 -0.557,0.556 l 0.363,1.539 c -0.085,0.1 -0.168,0.2 -0.25,0.302 L 19.097,22.906 A 0.462,0.462 0 0 0 18.66,23.56 l 0.654,1.436 c -0.063,0.115 -0.126,0.231 -0.187,0.35 l -1.556,0.252 a 0.462,0.462 0 0 0 -0.301,0.727 l 0.92,1.279 c -0.04,0.126 -0.078,0.253 -0.115,0.38 l -1.476,0.553 a 0.462,0.462 0 0 0 -0.153,0.771 l 1.155,1.077 c -0.015,0.13 -0.028,0.26 -0.039,0.391 l -1.343,0.832 a 0.462,0.462 0 0 0 0,0.786 l 1.343,0.831 c 0.011,0.131 0.024,0.262 0.039,0.392 l -1.155,1.077 a 0.462,0.462 0 0 0 0.153,0.771 l 1.476,0.552 c 0.037,0.128 0.076,0.255 0.116,0.38 l -0.921,1.28 a 0.462,0.462 0 0 0 0.301,0.726 l 1.556,0.253 c 0.061,0.118 0.123,0.235 0.188,0.35 l -0.655,1.435 a 0.462,0.462 0 0 0 0.437,0.654 l 1.579,-0.055 c 0.082,0.103 0.165,0.203 0.25,0.303 l -0.363,1.539 a 0.46,0.46 0 0 0 0.557,0.555 l 1.538,-0.362 c 0.1,0.085 0.201,0.167 0.303,0.249 l -0.055,1.58 a 0.461,0.461 0 0 0 0.654,0.436 l 1.435,-0.654 c 0.115,0.064 0.232,0.127 0.35,0.188 l 0.253,1.555 a 0.461,0.461 0 0 0 0.727,0.302 l 1.279,-0.922 c 0.126,0.04 0.253,0.08 0.38,0.116 l 0.552,1.476 a 0.46,0.46 0 0 0 0.771,0.153 l 1.078,-1.155 c 0.13,0.015 0.26,0.028 0.391,0.04 l 0.832,1.343 a 0.463,0.463 0 0 0 0.786,0 l 0.831,-1.344 c 0.131,-0.011 0.262,-0.024 0.392,-0.039 l 1.077,1.155 a 0.46,0.46 0 0 0 0.77,-0.153 l 0.553,-1.476 c 0.127,-0.036 0.254,-0.076 0.38,-0.116 l 1.28,0.922 a 0.463,0.463 0 0 0 0.726,-0.302 l 0.254,-1.556 c 0.117,-0.06 0.233,-0.124 0.349,-0.187 l 1.435,0.654 a 0.461,0.461 0 0 0 0.654,-0.437 l -0.055,-1.58 c 0.102,-0.08 0.203,-0.163 0.303,-0.248 l 1.538,0.362 a 0.46,0.46 0 0 0 0.556,-0.555 l -0.362,-1.539 c 0.084,-0.1 0.167,-0.2 0.249,-0.303 l 1.58,0.055 a 0.46,0.46 0 0 0 0.436,-0.654 l -0.654,-1.435 c 0.064,-0.115 0.126,-0.232 0.187,-0.35 l 1.556,-0.253 a 0.46,0.46 0 0 0 0.301,-0.726 l -0.92,-1.28 a 17.5,17.5 0 0 0 0.115,-0.38 l 1.476,-0.552 a 0.46,0.46 0 0 0 0.153,-0.771 l -1.155,-1.077 c 0.014,-0.13 0.027,-0.261 0.039,-0.392 l 1.343,-0.831 a 0.462,0.462 0 0 0 0,-0.786 z M 38.79,42.752 a 0.952,0.952 0 0 1 0.399,-1.861 0.952,0.952 0 0 1 -0.4,1.861 z m -0.457,-3.087 a 0.866,0.866 0 0 0 -1.028,0.666 l -0.477,2.226 A 11.649,11.649 0 0 1 32,43.597 c -1.76,0 -3.43,-0.39 -4.929,-1.087 l -0.477,-2.225 a 0.866,0.866 0 0 0 -1.028,-0.667 l -1.965,0.422 a 11.68,11.68 0 0 1 -1.016,-1.197 h 9.561 c 0.108,0 0.18,-0.02 0.18,-0.118 v -3.382 c 0,-0.099 -0.072,-0.118 -0.18,-0.118 H 29.35 V 33.08 h 3.024 c 0.276,0 1.476,0.079 1.86,1.613 0.12,0.471 0.384,2.006 0.564,2.497 0.18,0.551 0.912,1.652 1.692,1.652 h 4.764 a 0.977,0.977 0 0 0 0.173,-0.017 c -0.33,0.449 -0.693,0.874 -1.083,1.27 l -2.01,-0.431 z m -13.223,3.04 a 0.952,0.952 0 0 1 -0.399,-1.861 0.95203046,0.95203046 0 0 1 0.398,1.862 z M 21.483,27.998 a 0.95021182,0.95021182 0 1 1 -1.737,0.771 0.95021182,0.95021182 0 1 1 1.737,-0.771 z m -1.115,2.643 2.047,-0.91 a 0.868,0.868 0 0 0 0.44,-1.145 l -0.421,-0.953 h 1.658 v 7.474 h -3.345 a 11.714,11.714 0 0 1 -0.38,-4.466 z m 8.983,-0.726 v -2.203 h 3.948 c 0.204,0 1.44,0.236 1.44,1.16 0,0.767 -0.948,1.043 -1.728,1.043 z M 43.7,31.898 c 0,0.292 -0.011,0.581 -0.033,0.868 h -1.2 c -0.12,0 -0.168,0.08 -0.168,0.197 v 0.551 c 0,1.298 -0.732,1.58 -1.373,1.652 -0.61,0.068 -1.288,-0.256 -1.371,-0.63 -0.36,-2.025 -0.96,-2.458 -1.908,-3.206 1.176,-0.746 2.4,-1.848 2.4,-3.323 0,-1.593 -1.092,-2.596 -1.836,-3.088 -1.044,-0.688 -2.2,-0.826 -2.512,-0.826 H 23.285 a 11.684,11.684 0 0 1 6.545,-3.694 l 1.463,1.535 c 0.331,0.346 0.88,0.36 1.225,0.028 l 1.638,-1.566 a 11.71,11.71 0 0 1 8.009,5.704 l -1.121,2.532 a 0.869,0.869 0 0 0 0.44,1.145 l 2.159,0.958 c 0.037,0.383 0.056,0.77 0.056,1.163 z M 31.294,19.093 a 0.95,0.95 0 0 1 1.344,0.031 0.952,0.952 0 0 1 -0.032,1.346 0.949,0.949 0 0 1 -1.343,-0.032 0.953,0.953 0 0 1 0.031,-1.345 z m 11.123,8.951 a 0.95041478,0.95041478 0 1 1 1.737,0.772 0.95041478,0.95041478 0 1 1 -1.737,-0.772 z"
   id="path132"
   style="fill:#000000;" />
   </g></g>
   <path
   style="fill:#000000;"
   d="m 146.80783,23.392695 c -0.59266,-0.567971 -0.79022,-0.963081 -0.79022,-1.62983 v -7.408321 c 0,-2.716384 -1.85208,-4.09927 -5.45746,-4.09927 -3.60538,0 -5.48216,1.531053 -5.70441,4.617853 h 3.33375 c 0.17286,-1.382887 0.74083,-1.827386 2.44474,-1.827386 1.3335,0 2.00025,0.444499 2.00025,1.333498 0,0.444499 -0.22225,0.814915 -0.59267,1.037165 -0.46919,0.246944 -0.46919,0.246944 -2.1731,0.518582 l -1.38289,0.246944 c -2.6423,0.444499 -3.92641,1.802691 -3.92641,4.198048 0,2.395357 1.60513,4.000493 4.04988,4.000493 1.48166,0 2.81516,-0.61736 4.04988,-1.901469 0,0.691444 0.0741,0.938388 0.39511,1.333498 h 3.75355 z m -4.17335,-4.93888 c 0,2.000246 -0.98778,3.136189 -2.74108,3.136189 -1.16064,0 -1.87677,-0.61736 -1.87677,-1.605136 0,-1.037165 0.54327,-1.531053 1.97555,-1.827386 l 1.18533,-0.222249 c 0.91369,-0.172861 1.06186,-0.22225 1.45697,-0.419805 z m 16.56993,-7.976291 h -10.37165 v 2.790467 h 6.1489 l -6.5934,7.754042 V 23.8125 h 11.0384 v -2.790467 h -6.76627 l 6.54402,-7.754042 z m 14.10051,12.915171 c -0.59266,-0.567971 -0.79022,-0.963081 -0.79022,-1.62983 v -7.408321 c 0,-2.716384 -1.85208,-4.09927 -5.45746,-4.09927 -3.60538,0 -5.48216,1.531053 -5.70441,4.617853 h 3.33375 c 0.17286,-1.382887 0.74083,-1.827386 2.44474,-1.827386 1.3335,0 2.00025,0.444499 2.00025,1.333498 0,0.444499 -0.22225,0.814915 -0.59267,1.037165 -0.46919,0.246944 -0.46919,0.246944 -2.17311,0.518582 l -1.38288,0.246944 c -2.6423,0.444499 -3.92641,1.802691 -3.92641,4.198048 0,2.395357 1.60513,4.000493 4.04988,4.000493 1.48166,0 2.81516,-0.61736 4.04988,-1.901469 0,0.691444 0.0741,0.938388 0.39511,1.333498 h 3.75355 z m -4.17335,-4.93888 c 0,2.000246 -0.98778,3.136189 -2.74108,3.136189 -1.16064,0 -1.87678,-0.61736 -1.87678,-1.605136 0,-1.037165 0.54328,-1.531053 1.97556,-1.827386 l 1.18533,-0.222249 c 0.91369,-0.172861 1.06186,-0.22225 1.45697,-0.419805 z"
   id="text1"
   aria-label="aza"/></svg>
