<svg id="レイヤー_1" data-name="レイヤー 1" xmlns="http://www.w3.org/2000/svg" viewBox="0 0 699.99 287.22"><defs><style>.cls-1{fill:#fefefe;}.cls-2{fill:#ddf9f4;}.cls-3{fill:#d2e7e6;}.cls-4{fill:#d3edeb;}.cls-5{fill:#d2ebe9;}.cls-6{fill:#d2e9e7;}.cls-7{fill:#d6edea;}.cls-8{fill:#d2ecea;}.cls-9{fill:#dbf4ef;}.cls-10{fill:#d2eae8;}.cls-11{fill:#d9f1ed;}.cls-12{fill:#d2e8e6;}.cls-13{fill:#d8f0ec;}.cls-14{fill:#ddf7f1;}.cls-15{fill:#daf3ee;}.cls-16{fill:#dcf5f0;}.cls-17{fill:#d4eae8;}.cls-18{fill:#d5ebe8;}.cls-19{fill:#d3eae7;}.cls-20{fill:#d5ebe9;}.cls-21{fill:#daf2ee;}.cls-22{fill:#d7efeb;}.cls-23{fill:#dbf5f0;}.cls-24{fill:#d6ece9;}.cls-25{fill:#d4e9e7;}.cls-26{fill:#dcf6f1;}.cls-27{fill:#d5ede9;}.cls-28{fill:#f5f5f5;}.cls-29{fill:#fbfbfb;}.cls-30{fill:#fafafa;}.cls-31{fill:#eee;}.cls-32{fill:#eaebdf;}.cls-33{fill:#e8e9dd;}.cls-34{fill:#e2e7b3;}.cls-35{fill:#d3e9e6;}.cls-36{fill:#eaeeba;}.cls-37{fill:#daf9f7;}.cls-38{fill:#d9f9f8;}.cls-39{fill:#f4f8bf;}.cls-40{fill:#f4f8be;}.cls-41{fill:#f7f8b3;}.cls-42{fill:#f4f8c2;}.cls-43{fill:#f4f8bd;}.cls-44{fill:#fafacc;}.cls-45{fill:#f5f8bf;}.cls-46{fill:#fafacb;}.cls-47{fill:#f6f8b4;}.cls-48{fill:#f5f7b3;}.cls-49{fill:#f5f8b6;}.cls-50{fill:#f4f7b3;}.cls-51{fill:#f5f7af;}.cls-52{fill:#f2f9cb;}.cls-53{fill:#f5f7b2;}.cls-54{fill:#f3f8c3;}.cls-55{fill:#f4f8b6;}.cls-56{fill:#f2f9d1;}.cls-57{fill:#f6f7b3;}.cls-58{fill:#f5f7b1;}.cls-59{fill:#f3f8bc;}.cls-60{fill:#f3f8bd;}.cls-61{fill:#f4f8bc;}.cls-62{fill:#f5f9ca;}.cls-63{fill:#f6f7b2;}.cls-64{fill:#f4f8b7;}.cls-65{fill:#f7f8b2;}.cls-66{fill:#f6f8b2;}.cls-67{fill:#f1f9ce;}.cls-68{fill:#f0f9cd;}.cls-69{fill:#f3f9ce;}.cls-70{fill:#f4f8bb;}.cls-71{fill:#f6f8b0;}.cls-72{fill:#f6f8b1;}.cls-73{fill:#f6f7ae;}.cls-74{fill:#f5f8b1;}.cls-75{fill:#dcf9f5;}.cls-76{fill:#cae0dc;}.cls-77{fill:#d0eae5;}.cls-78{fill:#dbf9f6;}.cls-79{fill:#cfe8e3;}.cls-80{fill:#060606;}.cls-81{fill:#c7ded9;}.cls-82{fill:#cce4df;}.cls-83{fill:#040505;}.cls-84{fill:#adc2bd;}.cls-85{fill:#040404;}.cls-86{fill:#f9ebdb;}.cls-87{fill:#acc0bb;}.cls-88{fill:#99aaa7;}.cls-89{fill:#f6e9d9;}.cls-90{fill:#a6b9b5;}</style></defs><path d="M679.35,226.05c57.93.18,111.95,3.26,165.6,11.13,43.65,6.4,86.77,15.22,127.86,31.94,15,6.1,29.35,13.37,41.86,23.85,12.87,10.78,20.48,23.51,17.89,41.34-1.26,8.64-.22,17.62-.07,26.45a222.79,222.79,0,0,1-.45,23c-.26,3-.34,6.52-2.29,8.55-8,8.32-5.71,18.55-5.56,28.2.1,7.06-2.28,11.75-7.91,16-22.48,17-48.33,27-74.48,36.39-44.63,16-90.83,25.4-137.64,32.19-47.61,6.9-95.47,9.14-143.51,7.87a993.81,993.81,0,0,1-138.57-13.61c-31.49-5.29-62.93-11-93.46-20.47-27.36-8.51-52.21-22.18-75.21-39.27-6.65-4.94-10.6-10.82-9.66-19.45.29-2.62-.35-5.33-.26-8,.22-5.93-.38-11.26-5.31-15.68-2.95-2.64-4-6.85-4.27-10.94-1.39-20.13-.66-40.29-.56-60.43,0-10.11,4.88-18.49,11.72-25.74,11.17-11.86,25.05-19.68,39.65-26.33,30.89-14.08,63.53-22.46,96.68-29C548,231,615.36,226.45,679.35,226.05Z" transform="translate(-333.07 -226.05)"/><path class="cls-1" d="M371,350.07a43,43,0,0,1-12.8-15c-1.39-2.63-1-4.45,1.16-6.52,9.57-9.29,20.85-15.94,32.8-21.53,30.46-14.25,62.76-22.58,95.6-28.95,85.52-16.59,171.91-19.93,258.66-15.69,59.43,2.9,118.37,10,176,25.73,22.14,6.07,43.8,13.48,63.93,24.79a112,112,0,0,1,21,15.16c2.72,2.5,3,4.71,1.19,7.78-3.65,6.21-7.83,11.86-14.44,15.26-.74.39-1.31,0-1.88-.4-2.46-2.53-5.87-3.45-8.78-5.24-9.12-5-18.28-9.91-28-13.77C930,319.84,903.36,311.41,876,305.3c-2.92-.66-5.79-1.54-8.76-1.94a11.4,11.4,0,0,1-1.53-.27,114.74,114.74,0,0,0-11.89-2.67,22.52,22.52,0,0,1-3.76-.51,63.37,63.37,0,0,0-8.84-1.64,11,11,0,0,1-1.51-.22,32.21,32.21,0,0,0-5.94-1c-3.68-.89-7.49-.93-11.16-1.8a11.54,11.54,0,0,1-1.44-.32,10.75,10.75,0,0,0-3.51-.61,21,21,0,0,1-4.26-.39,7.19,7.19,0,0,0-4.78-.06,6.76,6.76,0,0,1-3-.17c-2.85-1.57-6-1.23-9.11-1.63-3.21-1.14-6.63-.31-9.88-1.1-9.82-1.23-19.71-1.59-29.55-2.53-2.93-.1-5.88.15-8.8-.34-2.53-.92-5.17-.65-7.78-.67-5.15-.15-10.31.31-15.45-.32-5.77-1.37-11.63-.39-17.44-.66q-22.59,0-45.17,0c-5.51.24-11.06-.67-16.53.65-5.48.64-11,.19-16.47.34-3.21.09-6.47-.42-9.62.65-3.23.52-6.49.25-9.73.34-5.22-.08-10.33,1.54-15.57,1-2.23,0-4.47-.18-6.62.6a26.57,26.57,0,0,1-5,.39c-5.78.85-11.67.7-17.41,1.84-3.44.17-6.91,0-10.26,1.07a14.57,14.57,0,0,1-3.67.44,7.14,7.14,0,0,0-5.27.43,7.5,7.5,0,0,1-3.5.61,66.25,66.25,0,0,0-13,1.55,12.6,12.6,0,0,1-3,.35c-7.25.71-14.43,1.89-21.57,3.23a13.84,13.84,0,0,1-2.77.68,28.35,28.35,0,0,0-7.84,1.4,10.11,10.11,0,0,1-2.65.67c-3.06.11-5.91,1.22-8.87,1.85a389.43,389.43,0,0,0-85.71,32.24,61.3,61.3,0,0,0-6.55,3.6c-3.06,1.71-6.32,3.05-9.24,5a39.91,39.91,0,0,0-4.56,2.74,9.22,9.22,0,0,1-1.12.71C374.31,349.42,372.91,350.83,371,350.07Z" transform="translate(-333.07 -226.05)"/><path class="cls-1" d="M356,323.34c1.89-10.25,7.43-16.76,14.18-22.4,13.2-11,28.66-18,44.59-23.92,30.95-11.59,63.07-18.62,95.59-23.93,66.3-10.84,133.11-14.29,200.17-12.81,63,1.39,125.66,6.88,187.31,20.82,26.74,6,53.06,13.56,77.64,26.06,11.15,5.67,21.78,12.18,29.58,22.37a32,32,0,0,1,4.76,8.67c.31.87.73,2.06-.37,2.68-.84.48-1.49-.34-2.14-.85-31.68-24.84-69.52-34.8-107.58-43.78-42.36-10-85.48-15.16-128.86-18.37a1183.86,1183.86,0,0,0-147.35-1.68c-63,3.19-125.35,10.39-186.21,27.76a329.35,329.35,0,0,0-33,11.18C387.11,302.05,370.56,310.12,356,323.34Z" transform="translate(-333.07 -226.05)"/><path class="cls-2" d="M416.93,374.05c-15.77-5.23-30.73-12.07-44-22.31-1-2.94,2.33-2.27,3.1-3.74h0a2.55,2.55,0,0,1,1.78-.2c8,1.89,15.88-.43,23.83-.54C419.77,347,437.87,346,456,345.4c18.27-.64,36.59-.86,54.81-2.21,22.4-1.66,44.85-1.43,67.23-2.81,12.59-.77,25.23-.66,37.8-2,7.41-.8,14.91-.3,22.38-.66,22.76-1.1,45.55-1.67,68.32-2.43,13.27-.44,26.6-.53,39.83-2.41,5.88-.84,11.91-.06,17.88-.15,20.3-.32,40.55-1.77,60.83-2.4,25.26-.78,50.53-1.67,75.76-3.14,11.27-.66,22.6-.58,33.85-1.78a7,7,0,0,0,3.35-.72c5.39.16,9.79,3,14.36,5.35a1.62,1.62,0,0,1,.66,2.13c-1.46,2.38-3.9,2.33-6.21,2.35-20.44.18-40.84,1.42-61.26,2.24-14.76.59-29.58.51-44.32,2.17a137.22,137.22,0,0,1-14.91.49c-21.29.08-42.53,1.61-63.79,2.37-13.59.49-27.24.68-40.83,2-6.73.63-13.59.57-20.38.69-14.63.24-29.23,1.07-43.82,1.94-5.73-.24-11.14-2.64-17.2-1.24-9.21,2.13-12.51,6.37-10.45,15.37,1.08,4.71.49,5.61-4.29,5.9-16.91,1.05-33.83,1.78-50.77,2.07a39.48,39.48,0,0,0-7.45.47,10.17,10.17,0,0,1-8.07-1.63c-3.47-3.55-6-7.9-11.75-9-9.32-1.83-17-.39-22.58,7.84a12,12,0,0,1-10.2,4.3c-12.62-.59-25.14,1.14-37.74,1.36-14.4.24-28.85.69-43.23,1.93C428.19,374.18,422.54,373.53,416.93,374.05Z" transform="translate(-333.07 -226.05)"/><path class="cls-3" d="M579,420.18c16.59,1,33.18,2.18,49.78,2.95a1211.47,1211.47,0,0,0,172-4.29C823,416.71,845,413.45,867,410.12c4.6.9,9.22.37,13.82.08,14.2-.87,28.41-1.5,42.64-1.7,2.77,0,5.74-.21,7.65,2.55-17,5.83-34.55,9.55-52.15,12.95-85.21,16.47-171.25,19.66-257.69,15.7a956.07,956.07,0,0,1-112.19-11.8,14.38,14.38,0,0,1-2.32-.78c3-3.42,7.18-3.25,11-3.45q18.39-1,36.81-1.23c7.94-.1,15.85-1.2,23.81-1.28C579.08,421.15,579.14,420.71,579,420.18Z" transform="translate(-333.07 -226.05)"/><path class="cls-4" d="M901,479c-11.47,4.1-23.44,6.27-35.27,9-24.29,5.55-48.91,9.25-73.53,13a43.79,43.79,0,0,1-6,.13c-1.63.93-3.55-.08-5.2.77l-3.69.26c-1.69.84-3.61-.06-5.31.72l-4.57.29c-1.74.77-3.68,0-5.42.7-47.32,4.53-94.66,4.52-142,1-2.36-.88-4.92.24-7.28-.73l-5.72-.27c-2-.85-4.25.2-6.26-.73l-4.73-.25c-1.74-.78-3.69,0-5.43-.73L586,501.8c-1.68-.8-3.61.12-5.28-.73l-3.72-.26c-1.65-.84-3.57.15-5.21-.76-12.18-.3-24.09-2.82-36.08-4.56-2.87-.42-6,.18-8.66-1.63.18-3.08,2.6-3.09,4.69-3.24,11.29-.83,22.59-1.33,33.89-1.94,16.27-.86,32.58-.55,48.82-1.5,14.92-.86,29.85-1.77,44.76-2.2,18.26-.52,36.48-1.51,54.72-2.34,12.07-.55,24.22-1.4,36.21-1.32,14.84.11,29.47-2.05,44.28-2,19.61.12,39.2-1.94,58.82-2.22,14.29-.21,28.54-1.48,42.84-1.44C898,475.71,901.66,474.51,901,479Z" transform="translate(-333.07 -226.05)"/><path class="cls-5" d="M645,465.9c21.43-.15,42.85.08,64.28-.68,33.05-1.17,66.06-2.67,99-6.06,2.13-.22,4.3-.18,6.45-.26,6.25-.59,12.53-.21,18.79-.71,12.53-1,25.12-1,37.68-1.8,8.54-.55,17.21-1,25.82-1,14.45,0,28.81-1.41,43.22-2,6.79-.29,13.61.57,20.39-.7a6.75,6.75,0,0,1,5.23,1.2c1.29.95,1.8,2,.11,3.07-9.55,4-19.17,7.77-29,11-2.77-1.48-5.56-.05-8.33,0-17.44.33-34.85,1.47-52.27,2.24-12.77.56-25.58.67-38.34,1.34-28.4,1.5-56.81,2.75-85.23,3.4-21.28.49-42.5,2-63.77,2.79-20.42.71-40.86,1.46-61.28,2.49-15.42.77-30.86,1.7-46.26,1.87-13.31.15-26.51,1.56-39.82,1.61-18.93.06-37.87,1-56.75,2.65A316.26,316.26,0,0,1,448,477.87c-.67-4.3,2.85-4.27,5.11-4.06,12.17,1.15,24.17-1.29,36.29-1.43,19.75-.24,39.5-1.25,59.24-2,22.2-.82,44.41-1.75,66.59-3,7.36-.42,14.7-1.3,22.07-1.86C640,465.31,642.41,467.32,645,465.9Z" transform="translate(-333.07 -226.05)"/><path class="cls-6" d="M617.49,459.06l-8.5-.25c-2.44-.87-5.07.18-7.5-.74l-6.5-.25c-2.09-.84-4.38.12-6.46-.74l-5.54-.27c-1.75-.76-3.71.05-5.45-.72l-4.55-.27c-1.72-.8-3.66.06-5.39-.73l-3.6-.25c-1.71-.84-3.66.06-5.38-.75a82.9,82.9,0,0,1-18.57-2.25c.22-3,2.65-3.33,4.7-3.21,13.63.83,27.06-2,40.72-1.87,8.42.1,17.17.69,25.66-1.15a12.3,12.3,0,0,1,6.41.29l10.5.27c4.1,1,8.33-.33,12.43.72,23.31,0,46.63.45,69.93,0,50.84-1,101.43-5,151.58-13.69,1.46-.25,3-.23,4.46-.34,14.68.26,29.28-1.94,44-1.39a22.37,22.37,0,0,1,5.43.39c1.41.4,3.07.83,2.12,3a647,647,0,0,1-83.81,16.27c-60.18,7.61-120.64,10-181.24,9.63-8.31-.06-16.62-.63-24.93-1C624.53,458.87,620.93,460.09,617.49,459.06Z" transform="translate(-333.07 -226.05)"/><path class="cls-7" d="M906.31,387.17c-17.25,5-34.93,8-52.63,10.79-71.59,11.43-143.68,14.22-216,11.82-27.28-.91-54.5-3-81.65-5.95a15.68,15.68,0,0,1-2.36-.66,24.54,24.54,0,0,1,13.21-3.63c16.29-.25,32.57-.74,48.84-1.84,8.29-.56,16.65-.67,24.92-.72,11.49-.07,22.89-1.37,34.38-1.46,10.26-.09,20.61-.58,30.89-1.29,6.82-.46,13.62-.63,20.44-.73,7.12-.09,7.48-.44,7.82-7.47a15.1,15.1,0,0,1,.58-2.92c.75-2.36,2.27-4.29,3.59-6.34a6.81,6.81,0,0,1,1.77-1.62c2.86-1.66,6.17-1.45,9.23-2.3a38.64,38.64,0,0,1,6.63-.1,30.15,30.15,0,0,1,9,3c2.9,2.34,5.36,5,6.22,8.78.93,4.08,3.77,5.32,7.46,4.86,8.44-1.06,16.94-.55,25.38-1.13,14.09-1,28.21-1.34,42.31-1.73,16.61-.45,33.16-2.15,49.78-2C899.67,384.53,903.5,384,906.31,387.17Z" transform="translate(-333.07 -226.05)"/><path class="cls-8" d="M484.9,486.33c1.48-1.88,3.65-2.28,5.78-2.31,9.88-.13,19.74-1.36,29.54-1.53,10.31-.17,20.64-1.1,31-.55,6.63.36,13.35-2.08,19.69-1.42,8.49.89,16.65-1.59,25-.62,7.32.85,14.52-1.1,21.84-1.1,10.16,0,20.34-.25,30.47-.91,12.4-.82,24.83-.47,37.22-1.71,6.59-.66,13.27-.28,19.9-.54,5.43-.21,10.88-1.21,16.27-.9,9,.51,17.84-1,26.78-1.21,11.34-.23,22.77.33,34.08-1.2a24.7,24.7,0,0,1,4.45-.33c13,.7,25.89-.85,38.82-1.32,6-.22,12.34-1.35,18.22-1.14,9.45.34,18.77-1.7,28.13-.61,3.91.46,7.55-.83,11.35-1,8.69-.4,17.37-.29,26.1-1.22,8.07-.87,16.48-.52,24.74-.67a2.94,2.94,0,0,1,2.7,1.91c-11.81,4.3-23.69,8.35-36,11.06-1.63-3.71-5.21-2.43-7.27-1.75-4.47,1.47-8.91.29-13.18.31-7.18,0-14.2,1.63-21.39,1.31-6.9-.32-13.83,0-20.74.11-8.08.1-16.15,1.71-24.12,1.64-10-.08-20,.87-30,.52a54.55,54.55,0,0,0-11.81,1,58.36,58.36,0,0,1-16.1.7c-5.55-.57-10.78.2-16.14,1a16.83,16.83,0,0,1-8.41-.42c-.47-.17-1.06-.48-1.43-.33-6.55,2.6-13.39.25-20.07,1.19-4.93.69-10,.2-15,.84-7.13.92-14.36-.4-21.45,1.32a27.19,27.19,0,0,1-8.67.26,40.09,40.09,0,0,0-9.73,0c-11.06,1.59-22.25-.37-33.38,1.86-6.51,1.3-13.5.07-20.25.49-10.67.65-21.38.6-32.05,1.07-10.17.45-20.39,1.46-30.64,1.37-3.81,0-8.73-1.41-12.13,2.38-10.9-.85-21.51-3.51-32.25-5.33C491.46,488,488.19,487.07,484.9,486.33Z" transform="translate(-333.07 -226.05)"/><path class="cls-9" d="M749,374l-9,2a86.22,86.22,0,0,1-15.89,1.18c-13.35-.25-26.58,1.41-39.89,1.71-11.44.26-23-.15-34.39,1.39-9.24,1.24-18.59.61-27.88,1q-23.94,1-47.85,2.42c-6.63.39-13.31.53-19.92.54-15.17,0-30.3.87-45.4,1.62-11.94.59-24-.26-35.84,2.05-2.67.52-5.33-.24-8,.28A100.75,100.75,0,0,1,445,383a4.21,4.21,0,0,1,3.8-2c8.66-.13,17.25-1.23,25.91-1.53,11.12-.37,22.27-.66,33.38-1.43,3.83-.27,7.64-.57,11.47-.54,2.53,0,4.57-.72,5.79-3.07.91-1,1.66-.53,2.47.19a21.69,21.69,0,0,0,23.69,3.17c2-1,3.87-2.63,6.41-2.17,6.77,1.47,13.63,1.07,20.41.58,12.78-.92,25.59-1.13,38.38-1.71,21.93-1,43.88-1.63,65.8-2.85,8.31-.47,16.65-.8,24.93-1,21.3-.39,42.55-1.86,63.84-2.45,9.41-.25,18.88-.48,28.94-1.11-1.7-3.37-4.5-5.66-4.16-9.2a4.5,4.5,0,0,1,.38-2.43c3-1.62,3.47,1.33,4,2.68,3,8.28,19.12,8.77,24.64,4.37,4.72-3.76,5.09-8.57.82-13.17-1-1-2.61-1.76-1.51-3.65,3.61-1.22,5.11,1.45,6.84,3.71a13.7,13.7,0,0,1,1.64,8.65c-.53,3.08,1.12,4.23,3.93,4.3,4.65.11,9.31.24,13.95-.07,14.9-1,29.86-1,44.75-2,20-1.32,40.11-1,60.11-2.64,7.61-.61,15.28.24,22.89-.87,1.82-.27,3.69.19,4.58,2.23a123.66,123.66,0,0,1-28,13.2c-16.26.44-32.5,1.18-48.74,1.92-14.22.66-28.45,1.44-42.65,1.85s-28.5,1.09-42.74,1.63c-10.56.4-21.17-.28-31.74,1.53-6.12,1-12.56-.47-18.86.35-2.93.38-4.18-2.4-6.33-3.51l-8-2A10.27,10.27,0,0,0,749,374Z" transform="translate(-333.07 -226.05)"/><path class="cls-10" d="M645,465.9c-.34.78-.82,1.74-1.73,1.5-8.29-2.21-16.25.35-24.36,1.32-6.35.76-12.83.43-19.25.65-4.28.14-8.66-.12-12.81.73-6.81,1.4-13.82.76-20.52,1-8.45.28-16.93,1.8-25.53,1.09-10.67-.88-21.38.76-32.07,1.27-5.7.27-11.43,0-17.19.41-9.84.71-19.77-.05-29.54,2-1.94.42-3.92-.35-5.88-.6-2.92-.39-6.47-1.57-8.09,2.58A190.41,190.41,0,0,1,395,458.14c0-2.49,2-2.31,3.52-2.47,2.64-.29,5.26-1,7.89-1,14.06.06,28.05-1.57,42.11-1.8,12.74-.21,25.51-.58,38.24-1.35a36,36,0,0,0,7.29-1.51c13.28,2,26.55,4.15,39.84,6.12a880.88,880.88,0,0,0,103.72,9.1C640.07,465.35,642.54,465.68,645,465.9Z" transform="translate(-333.07 -226.05)"/><path class="cls-1" d="M1022.7,339.55c-3.8-6.32-6.77-12.09-7.45-19.47-.9-9.85-7.94-16.94-15.34-23.14-11-9.17-23.55-15.54-36.64-21-30.41-12.59-62.22-20.22-94.51-25.87-83.24-14.56-167.11-17.71-251.37-13.27C566,239.56,514.92,245.35,464.67,257,439.23,263,414.24,270.29,390.73,282c-10.17,5.05-19.86,10.88-27.94,19-7.13,7.16-12.3,15.32-11.71,26a5.91,5.91,0,0,1-1.55,4.06,40.2,40.2,0,0,0-5.13,9.3c-5-7.4-6.25-14.78-3.61-22.84s8-14.14,14.31-19.44c16.32-13.69,35.59-21.87,55.37-28.91,33.95-12.09,69.06-19.49,104.59-24.9,63.54-9.69,127.51-13.08,191.73-11.88a1083.68,1083.68,0,0,1,122.49,8.77c47.64,6.33,94.73,15.08,139.65,33,14.23,5.67,27.92,12.41,40,22,6.3,5,11.94,10.63,15.43,18C1028.44,322.74,1027.78,331.11,1022.7,339.55Z" transform="translate(-333.07 -226.05)"/><path class="cls-10" d="M966,456.94c.84-3.55-2.23-3.11-3.66-2.84-10.45,1.92-21-.19-31.55,1.59-6.71,1.13-13.65.4-20.53,1-10.49.86-21.12.59-31.69,1.28-12.55.82-25.13.7-37.69,1.82a110,110,0,0,1-26.12-.86c11.16-1.57,22.32-3.11,33.47-4.7,31.08-4.42,61.59-11.5,91.86-19.72,1.11-.3,2.26-.42,3.4-.62,19.14-3.5,38.5-3.24,57.84-3.44,2,0,4-.34,6-.25,1.57.08,3.69-.06,2.7,2.71C996.75,443.59,981.77,451,966,456.94Z" transform="translate(-333.07 -226.05)"/><path class="cls-11" d="M764,376c4.29,2.83,8.84,1.76,13.58,1.49,5.7-.34,11.4.77,17.22-.38,10.69-2.11,21.64-.8,32.47-1.51,9.6-.63,19.44-2,29-1.2,10.45.85,20.63-2.73,31-.53a11.89,11.89,0,0,0,6.31-.93c4.57-1.79,9.09.25,13.71-.31,8.6-1,17.34-1,26-1.29,5.74-.2,11.49-.27,17.23-.31,1.59,0,3.4-.53,4.57,1.2a270.41,270.41,0,0,1-48.74,14.94c-9-1.74-18-1.43-27.16-.34-7.7.93-15.55.7-23.29.88-13.26.3-26.49,1.26-39.75,1.4-13.05.14-26.1,1.13-39.13,1.94-4.25.26-6.73-1.12-7.05-5.55C769.62,381.28,766.09,379.09,764,376Z" transform="translate(-333.07 -226.05)"/><path class="cls-3" d="M494,450.05c-3.46,5.24-9.09,2.94-13.61,3.36-9.42.89-19,.52-28.45.78-5.36.15-10.7.59-16.06.78-6.43.22-12.81.51-19.24,1.25-5.53.64-11.4-.05-17.11.75-1.57.22-3.38-.51-4.58,1.17-14.14-7-27.76-14.85-39.78-25.21,1.12-2.45,3.46-2.15,5.53-2.42,13.73-1.75,27.63-.77,41.35-2.66,12.32,3.35,24.59,6.87,37,10,17.25,4.38,34.62,8.19,52.14,11.3A22.87,22.87,0,0,1,494,450.05Z" transform="translate(-333.07 -226.05)"/><path class="cls-12" d="M617.54,445.9c-4.95-1.14-9.15,2.37-14,2.14-19.94-1-39.76,2.1-59.68,1.93-1.61,0-3,.34-3.78,1.87-20.34-2.23-40.41-6-60.46-10q-29.34-5.75-58.12-13.91a10.33,10.33,0,0,1-1.75-.83c2-2.5,5-2.68,7.74-2.52,8.47.46,16.87-1.38,25.33-.66a2.82,2.82,0,0,0,2.26-.85c18.63,4,37.25,8.15,56.09,11.18A985.8,985.8,0,0,0,611.68,445.1C613.64,445.21,615.69,444.91,617.54,445.9Z" transform="translate(-333.07 -226.05)"/><path class="cls-13" d="M736,382c.16,2.1-.73,4-.23,6.33,1.07,4.87-.5,6.78-5.77,6.58-12.49-.49-24.91.78-37.34,1.29-13.15.55-26.35,1.12-39.5,1.86-9.27.52-18.65,1.13-28,1.1-10.42,0-20.85,1.34-31.27,1.24-7.75-.07-15.49,1.67-23.11.71-6.08-.76-11.36,1.89-17.11,2.06a347.45,347.45,0,0,1-43.8-6.1c3.81-3.32,8.49-3.44,13.15-3.49,15.47-.19,30.92-1.71,46.37-1.56,13,.12,25.9-1.22,38.86-1.63,17.95-.58,35.93-1,53.87-1.85q32.37-1.49,64.74-3c2.44-.12,4.6-.59,6.16-2.67C733.73,381.86,734.69,381.19,736,382Z" transform="translate(-333.07 -226.05)"/><path class="cls-14" d="M983,359a8.7,8.7,0,0,0-6.76-.66,15.28,15.28,0,0,1-3.4.61c-13.27.37-26.54.68-39.81,1-17.48.47-34.91,1.77-52.4,2.19-14.72.36-29.43,1.83-44.18,1.8-5.77,0-6.73-.94-5.09-6.38,1-3.36-1.26-5.71-1.39-8.61.17,0,.39-.13.49-.06,8.15,6,17.6,3.81,26.35,3.19,11.46-.83,22.94-.73,34.4-1.34,12.59-.68,25.24-1.17,37.88-1.5,16.62-.43,33.22-1.48,49.85-1.91a28.2,28.2,0,0,0,4.91-.86c3.66-.38,6.25,2,9.12,3.6l1.07.94C991.27,355,987.08,356.92,983,359Z" transform="translate(-333.07 -226.05)"/><path class="cls-15" d="M465,388.19c6.72-2.44,13.81-2.79,20.81-3.11,13.38-.61,26.84-.08,40.16-1.27,13.88-1.24,27.78-.89,41.66-1.52,18.92-.86,37.82-2.23,56.79-2.46,19.3-.23,38.59-2.64,57.87-2.5,10.76.08,21.34-2.1,32-1.3,6.69.5,13.23-1.07,19.87-1,2,0,4-.11,5.81,1l-1,1c-2.56,4.1-6.48,5.33-11,5.56-18.44.9-36.91,1.28-55.36,2.12-24.26,1.11-48.53,2-72.79,3-24.1,1-48.21,1.7-72.29,3-14.44.79-28.89.83-43.32,1.73a3.59,3.59,0,0,1-1.44-.35A90,90,0,0,1,465,388.19Z" transform="translate(-333.07 -226.05)"/><path class="cls-11" d="M482.74,392.1a204.26,204.26,0,0,1,27.19-2.2c14.56-.33,29.11-1.33,43.67-2,6.59-.28,13.21-.6,19.76-.68,13.95-.16,27.86-1.1,41.79-1.46,16.72-.43,33.45-1.19,50.16-2,15.83-.75,31.64-1.51,47.49-1.92,6.1-.15,12.2-1,18.34-1,3.12,0,5.52-2,7.85-3.9-.22,2.14-1.7,3.52-3,5-3.34,6.48-9.49,4.28-14.86,5.12-12.49,2-25.12,1-37.67,2-9.16.74-18.68,1.11-28.07,1.09-17,0-34.09,1.52-51.15,1.77-11.07.17-22.1,1.2-33.17,1.45-14,.32-28.12.44-42.17,1.75-6.34.58-12.76.52-19,1.9C500.61,396.51,491.69,394.25,482.74,392.1Z" transform="translate(-333.07 -226.05)"/><path class="cls-12" d="M918,434.86c-.27-1.78-1.57-1.88-3-1.87-13.34.1-26.73-.49-40,1.88-3.31.59-5.62-1.85-8.59-2,14.25-3.1,28.54-6,42.74-9.33a438.64,438.64,0,0,0,54.61-16.92c9.21,2.13,18.36-.72,27.55-.31,2.2.09,5-.69,4.76,3.09A429.34,429.34,0,0,1,918,434.86Z" transform="translate(-333.07 -226.05)"/><path class="cls-16" d="M526,374c.56,3.81-.9,4.89-4.88,5.14-14.47.94-29,1.09-43.46,1.94-9.53.56-19.23,1.82-28.9,1.11-1.25-.09-2.55.54-3.83.84a155.9,155.9,0,0,1-28-9c5.41-3.89,11.59-1.37,17.36-1.86,14-1.18,28.08-2.19,42.11-2,13.2.18,26.27-2.06,39.44-1.2,3.75.24,6.35-2.15,9.19-4C527.15,367.8,526.38,370.93,526,374Z" transform="translate(-333.07 -226.05)"/><path class="cls-17" d="M579,420.18l2.59,1.68c-13.11,1.1-25.62,2-38.23,2.29-12.23.32-24.65-.48-36.66,3A351.83,351.83,0,0,1,457.92,417c1.86-2.05,4.42-2.34,6.88-2.4,9.31-.22,18.57-1.42,27.91-1.28a105,105,0,0,0,19.3-1.21l46,6c1.69.8,3.62-.1,5.31.73l4.69.29c1.74.73,3.68-.06,5.42.7Z" transform="translate(-333.07 -226.05)"/><path class="cls-3" d="M1009.94,432.88c-.16-.84-.46-1.9-1.43-1.68-7.77,1.76-15.74.83-23.51.86-6.46,0-13,2.12-19.53.1-3.13-1-5.94,1.82-9.11,1.81-4.31,0-8.61-.07-12.92-.11,18.54-6.07,37.12-12,55-19.81a153.27,153.27,0,0,0,19.38-9.55c0,7.57.52,14.61-.21,21.51C1017.28,429.66,1013.37,431.51,1009.94,432.88Z" transform="translate(-333.07 -226.05)"/><path class="cls-17" d="M931.09,411.05c-7.35-2-14.84-1.13-22.24-.71-2.42.14-4.9.78-7.36.62-9.79-.62-19.49,1.11-29.26,1-2,0-4.08.39-5.25-1.87,9.4-2,18.75-4.2,28.2-5.84,11.75-2,23.14-5.5,34.75-8.09,2.59,1.47,5.44,1.47,8.22,1,7-1.09,13.92-.6,20.89-.62,2.26,0,4.78-.21,6,2.45A184.47,184.47,0,0,1,931.09,411.05Z" transform="translate(-333.07 -226.05)"/><path class="cls-18" d="M402.08,427.85c-5.1,2.53-10.53,2.72-16.11,2.69a152,152,0,0,0-20.59,1c-3.38.45-7-.59-10.18,1.37-4-2.31-5.56-5.8-5.4-10.38.18-5.25,0-10.52,0-16.25C366.57,415.11,384.44,421.19,402.08,427.85Z" transform="translate(-333.07 -226.05)"/><path class="cls-19" d="M761,415.82l-7.64.27c-3.4,1-7-.23-10.35.73l-10.51.25c-5.12,1.09-10.36-.25-15.49.75q-34,1.14-68,0c-5.11-1-10.33.33-15.43-.74L623,416.81c-3.11-.91-6.38.27-9.49-.73l-8.51-.27c-2.42-.85-5,.19-7.44-.72L596,415a1.71,1.71,0,0,1-.17-2.15,1.31,1.31,0,0,1,1.47,0l6.73.29c2.74.87,5.66-.24,8.4.71l8.59.28c3.74,1,7.63-.31,11.36.72l13.64.28c7.14,1,14.36-.37,21.5.75q16-.74,31.93,0c7.47-1.15,15,.29,22.51-.76l13.46-.24c3.79-1.08,7.74.23,11.53-.77l7.63-.26c3.06-1,6.3.23,9.37-.74l6.47-.24c2.44-.94,5.08.14,7.53-.76l4.71-.25c2-.92,4.26.12,6.28-.73l5.52-.28c1.76-.77,3.73.05,5.48-.74,22.95-2.59,45.86-5.55,68.62-9.45,12.2-2.1,24.26-5,36.38-7.56.68.76,1.93.86,2.29,2-10.94,3.61-22.31,5.29-33.58,7.42-19.51,3.67-39.13,6.59-58.88,8.61a9.35,9.35,0,0,1-1.49-.07c-1.69.84-3.61-.07-5.31.73l-4.52.28c-1.75.78-3.73-.06-5.48.74l-4.59.26c-2.06.87-4.34-.13-6.4.74l-4.66.25c-2.38,1-5-.17-7.34.74l-5.72.25C766.59,416.09,763.7,414.89,761,415.82Z" transform="translate(-333.07 -226.05)"/><path class="cls-7" d="M512,412.15c-4.51,3.24-10,2.47-14.87,2.61-13.1.37-26.18.77-39.22,2.28a193.81,193.81,0,0,1-31.24-8.88c1.56-2.46,4.17-2.2,6.57-2.64,9-1.64,18.08-.44,27.08-1.45,1.29-.15,2.67.12,3.72-.94,9.88,2,19.74,4.15,29.65,6.05C499.77,410.35,505.91,411.17,512,412.15Z" transform="translate(-333.07 -226.05)"/><path class="cls-20" d="M455.05,423.1c.94,2.49-1,1.87-2.13,1.87-8.63,0-17.18,1.58-25.85,1.1-2.42-.14-4.9.68-7.35,1.06a234.78,234.78,0,0,1-36.81-12.08c2.51-2.84,5.95-2.5,9.18-2.5a142.19,142.19,0,0,0,23-1.42c11.88,3.34,23.42,7.81,35.37,11C452,422.51,453.59,422.44,455.05,423.1Z" transform="translate(-333.07 -226.05)"/><path class="cls-13" d="M464.05,403.13c.45,1.1.39,1.6-1.08,1.93-6.21,1.4-12.48.72-18.73.95a91,91,0,0,0-17.56,2.15A165,165,0,0,1,395,396c3.23-2.54,7-2.59,10.89-2.52,5.76.1,11.56.61,17.17-1.28,12.29,3.27,24.34,7.44,36.79,10.09C461.25,402.6,462.65,402.86,464.05,403.13Z" transform="translate(-333.07 -226.05)"/><path class="cls-21" d="M355.05,403c-4.65-1-6.33-3.66-6.07-8.5.39-7.62.1-15.27.1-23.7,10.16,12.67,23.24,20.95,36.95,28.37,0,2.2-1.6,3-3.27,3-8.47.27-16.86,1.79-25.35,1.5A4.15,4.15,0,0,1,355.05,403Z" transform="translate(-333.07 -226.05)"/><path class="cls-7" d="M965.08,399.06c-8.42-2-16.92-1.31-25.37-.4-3.16.34-6.17.47-9.2-.59-1.21-.42-.85-1.12-.58-1.88l39.94-13.37c5.32,1,10.6-.82,15.92-.25,2.42.25,5.13-.27,6.52,2.58A114.56,114.56,0,0,1,965.08,399.06Z" transform="translate(-333.07 -226.05)"/><path class="cls-22" d="M355.05,403c9.05-.92,18.07-2.12,27.18-2,1.61,0,3-.32,3.8-1.83,8.86,3.12,16.82,8.34,25.83,11.17a18.83,18.83,0,0,1,3.19.79c-3.51,3.56-8.22,2.24-12.34,2.71-6.55.74-13.26-.44-19.8,1.21A151.38,151.38,0,0,1,355.05,403Z" transform="translate(-333.07 -226.05)"/><path class="cls-23" d="M366.13,353.89a8,8,0,0,1,2.24.83c17.3,13.46,37.46,21,57.78,28.31,13.43,4.85,27.39,7.64,41,11.9a11.34,11.34,0,0,0,2.93.16c.73,3.46-1.41,2.35-3.11,2-9-1-17.56-3.68-26.2-6.07-22-6.09-43.58-13.28-63.85-24a102.05,102.05,0,0,1-14.79-9.12C362,355.13,364.13,354.57,366.13,353.89Z" transform="translate(-333.07 -226.05)"/><path class="cls-24" d="M984.89,396.86c11.93-7,24-14,32.83-26.1V398c-3,1.59-6.31,1.55-9.61,1.57-6.25.05-12.49-.22-18.73.28C987.28,400,984.88,400.11,984.89,396.86Z" transform="translate(-333.07 -226.05)"/><path class="cls-13" d="M907.25,395.13c-1.23-.12-2.19-.56-2.29-2,32.85-8.92,65.77-17.67,93.86-38.25,1.47-.84,2.79-.38,4.09.42a2.76,2.76,0,0,1,1.18,1.77c-.37,2.38-2.59,2.88-4.18,3.89-19,12.16-40,19.49-61.38,26.09C928.24,390.24,918,393.6,907.25,395.13Z" transform="translate(-333.07 -226.05)"/><path class="cls-25" d="M984.89,396.86c.61,1.31,1.51,2.24,3.08,1.95,9.88-1.78,19.84-.34,29.75-.82-6.26,5.61-14,8.36-21.62,11.41-.72-1.92-1.91-1.95-3.9-1.76-7.4.69-14.84,1-22.26,1.34-2.37.12-4.69-.05-6.15-2.36Z" transform="translate(-333.07 -226.05)"/><path class="cls-13" d="M992.31,385.15c-5.33-2.06-10.82-1.41-16.21-.59-2.56.39-4.56.33-6.23-1.74,13.77-6,27.34-12.45,39.85-20.91,2.84-.88,4.23.22,4.26,3.15-4.57,8.11-11.42,13.78-19.44,18.21A15.12,15.12,0,0,0,992.31,385.15Z" transform="translate(-333.07 -226.05)"/><path class="cls-9" d="M423.06,392.21c.53,1.18.27,1.62-1.15,1.85a50,50,0,0,1-10.78.95A58.24,58.24,0,0,0,395,396a86.16,86.16,0,0,1-20.25-10.88c1.46-2.3,3.87-2.3,6.17-2.43a46.6,46.6,0,0,0,11.14-1.6Z" transform="translate(-333.07 -226.05)"/><path class="cls-26" d="M392.06,381.1c.73,1.61-.11,1.67-1.5,2-5.22,1.14-10.69.29-15.81,2.06A54.71,54.71,0,0,1,353,365c0-2.68,1.13-3.94,3.93-3C368.27,369.12,379.24,376.81,392.06,381.1Z" transform="translate(-333.07 -226.05)"/><path class="cls-27" d="M466.92,397c1.35-.15,3,.13,3.11-2,8.19,1.66,16.37,3.36,24.57,5,6.71,1.33,13.42,2.73,20.18,3.8,9,1.42,18.08,2.4,27.09,3.93,8.29,1.41,16.78,1.62,25.18,2.35,1.75.79,3.73,0,5.49.74l5.51.28c2,.85,4.26-.18,6.28.72l5.72.29c1.87,1,4.18-.57,5.94,1.05l0,1.78-5-.2c-2.1-.79-4.4.12-6.49-.72l-5.51-.27c-2-.86-4.25.2-6.25-.74l-4.75-.26c-1.68-.8-3.61.11-5.29-.73a42.46,42.46,0,0,1-12.7-1.24c-1.66-.88-3.59.12-5.26-.76-16-1-31.63-3.85-47.32-6.61C487.18,401.68,476.92,400,466.92,397Z" transform="translate(-333.07 -226.05)"/><path class="cls-28" d="M342.26,393.71a16.37,16.37,0,0,1-3.47-9.11c-1.26-13.55-.18-27.11-.7-41.7,3.11,3.2,4.37,5.66,4.29,9.38C342.08,366,342.26,379.78,342.26,393.71Z" transform="translate(-333.07 -226.05)"/><path class="cls-29" d="M366.13,353.89c-.62,2.08-3.31,2.05-4.05,4-2.47-1.89-5-3.66-7.38-5.7-7-6.1-7.1-7.11-1.21-15.78C356.1,343.72,362.18,348,366.13,353.89Z" transform="translate(-333.07 -226.05)"/><path class="cls-30" d="M1004.09,357.08l-1.16-1c-.74-1-2.56-1.23-2-3.05,4.85-4.88,9.77-9.7,12.64-16.34,5.79,7.46,5.79,9-.63,14.47C1010.23,353.47,1008.07,356.69,1004.09,357.08Z" transform="translate(-333.07 -226.05)"/><path class="cls-31" d="M1024.72,391a259,259,0,0,1,1.56-45.69C1026.83,360.61,1029.41,376,1024.72,391Z" transform="translate(-333.07 -226.05)"/><path class="cls-32" d="M1014,365.06a5.17,5.17,0,0,0-4.26-3.15l8.2-7.17A16.5,16.5,0,0,1,1014,365.06Z" transform="translate(-333.07 -226.05)"/><path class="cls-33" d="M357,362c-2,.12-3.05,1.42-3.93,3-2.25-2.52-3.28-5.56-4.17-9.93Z" transform="translate(-333.07 -226.05)"/><path class="cls-12" d="M722,415.16c-7.45,1.81-15,.45-22.51.76C706.94,414.8,714.47,415.18,722,415.16Z" transform="translate(-333.07 -226.05)"/><path class="cls-12" d="M667.54,415.92c-7.17-.31-14.39,1.05-21.5-.75C653.21,415.21,660.4,414.79,667.54,415.92Z" transform="translate(-333.07 -226.05)"/><path class="cls-12" d="M717,417.82c5.09-1.82,10.33-.45,15.49-.75C727.38,418.18,722.19,417.88,717,417.82Z" transform="translate(-333.07 -226.05)"/><path class="cls-12" d="M633.55,417.08c5.14.28,10.36-1.06,15.43.74C643.82,417.89,638.65,418.13,633.55,417.08Z" transform="translate(-333.07 -226.05)"/><path class="cls-12" d="M640.47,446.89c-4.14-.24-8.37,1-12.43-.72C632.2,446.1,636.37,445.92,640.47,446.89Z" transform="translate(-333.07 -226.05)"/><path class="cls-12" d="M747,414.15c-3.74,1.74-7.68.5-11.53.77C739.23,413.79,743.11,414.1,747,414.15Z" transform="translate(-333.07 -226.05)"/><path class="cls-12" d="M632.4,414.89c-3.79-.18-7.66.95-11.36-.72C624.85,414.08,628.66,413.91,632.4,414.89Z" transform="translate(-333.07 -226.05)"/><path class="cls-12" d="M617.49,459.06c3.5.28,7.1-1,10.49.74C624.46,459.86,620.93,460.2,617.49,459.06Z" transform="translate(-333.07 -226.05)"/><path class="cls-12" d="M743,416.82c3.34-1.73,6.9-.51,10.35-.73C750,417.14,746.48,416.93,743,416.82Z" transform="translate(-333.07 -226.05)"/><path class="cls-12" d="M613.49,416.08c3.17.21,6.44-.9,9.49.73C619.79,416.89,616.59,417.2,613.49,416.08Z" transform="translate(-333.07 -226.05)"/><path class="cls-12" d="M764,413.15c-3,1.66-6.24.56-9.37.74C757.66,412.91,760.82,413.06,764,413.15Z" transform="translate(-333.07 -226.05)"/><path class="cls-34" d="M376.07,348c-.45,1.73-2.91,1.79-3.1,3.74l-2-1.67Z" transform="translate(-333.07 -226.05)"/><path class="cls-12" d="M761,415.82c2.64-1.65,5.52-.55,8.28-.74C766.59,416.07,763.79,415.94,761,415.82Z" transform="translate(-333.07 -226.05)"/><path class="cls-12" d="M612.45,413.89c-2.81-.17-5.72.93-8.4-.71C606.88,413.09,609.71,412.94,612.45,413.89Z" transform="translate(-333.07 -226.05)"/><path class="cls-5" d="M612.7,504.06c2.44.17,5-.86,7.28.73A17.27,17.27,0,0,1,612.7,504.06Z" transform="translate(-333.07 -226.05)"/><path class="cls-12" d="M778,412.15c-2.37,1.66-5,.54-7.53.76C772.86,411.81,775.42,412.08,778,412.15Z" transform="translate(-333.07 -226.05)"/><path class="cls-12" d="M775,414.83c2.31-1.62,4.88-.58,7.33-.74C780,415.07,777.48,414.94,775,414.83Z" transform="translate(-333.07 -226.05)"/><path class="cls-35" d="M597.54,415.09c2.49.18,5.09-.88,7.44.72C602.47,415.91,600,416.09,597.54,415.09Z" transform="translate(-333.07 -226.05)"/><path class="cls-35" d="M596,413.23c-1.93-.65-4.18.51-5.94-1.05a17.55,17.55,0,0,1,7.27.71Z" transform="translate(-333.07 -226.05)"/><path class="cls-12" d="M601.49,458.07c2.5.22,5.13-.89,7.5.74C606.45,458.9,603.91,459.12,601.49,458.07Z" transform="translate(-333.07 -226.05)"/><path class="cls-12" d="M787,413.84c2-1.56,4.25-.62,6.39-.74C791.35,414.06,789.17,414,787,413.84Z" transform="translate(-333.07 -226.05)"/><path class="cls-35" d="M584.5,414.09c2.17.13,4.47-.82,6.49.72C588.79,414.91,586.58,415.1,584.5,414.09Z" transform="translate(-333.07 -226.05)"/><path class="cls-5" d="M600.72,503.06c2.1.13,4.33-.79,6.26.73A13,13,0,0,1,600.72,503.06Z" transform="translate(-333.07 -226.05)"/><path class="cls-36" d="M1000.89,353.05l2,3.05-4.11-1.21Z" transform="translate(-333.07 -226.05)"/><path class="cls-12" d="M588.53,457.08c2.17.16,4.46-.83,6.46.74C592.8,457.92,590.6,458.07,588.53,457.08Z" transform="translate(-333.07 -226.05)"/><path class="cls-35" d="M572.74,413.08c2.1.11,4.32-.78,6.25.74A12.93,12.93,0,0,1,572.74,413.08Z" transform="translate(-333.07 -226.05)"/><path class="cls-12" d="M789,411.17c-1.94,1.51-4.17.61-6.28.73A13.18,13.18,0,0,1,789,411.17Z" transform="translate(-333.07 -226.05)"/><path class="cls-35" d="M584.33,411.89c-2.11-.09-4.33.8-6.28-.72A13.05,13.05,0,0,1,584.33,411.89Z" transform="translate(-333.07 -226.05)"/><path class="cls-3" d="M573.47,419.88c-1.83-.05-3.76.72-5.42-.7A9.87,9.87,0,0,1,573.47,419.88Z" transform="translate(-333.07 -226.05)"/><path class="cls-12" d="M558.62,454.09c1.82.08,3.76-.73,5.38.75A9.39,9.39,0,0,1,558.62,454.09Z" transform="translate(-333.07 -226.05)"/><path class="cls-3" d="M563.36,418.89c-1.8-.05-3.7.7-5.31-.73A9.41,9.41,0,0,1,563.36,418.89Z" transform="translate(-333.07 -226.05)"/><path class="cls-12" d="M567.6,455.09c1.82.08,3.76-.72,5.39.73A9.27,9.27,0,0,1,567.6,455.09Z" transform="translate(-333.07 -226.05)"/><path class="cls-12" d="M577.54,456.09c1.83.09,3.79-.73,5.45.72A9.7,9.7,0,0,1,577.54,456.09Z" transform="translate(-333.07 -226.05)"/><path class="cls-12" d="M808,411.82c1.61-1.42,3.52-.66,5.31-.73A9.49,9.49,0,0,1,808,411.82Z" transform="translate(-333.07 -226.05)"/><path class="cls-35" d="M562.7,412.09c1.79.05,3.69-.69,5.29.73A9.44,9.44,0,0,1,562.7,412.09Z" transform="translate(-333.07 -226.05)"/><path class="cls-12" d="M800,410.15c-1.66,1.47-3.63.65-5.47.74C796.21,409.92,798.09,410,800,410.15Z" transform="translate(-333.07 -226.05)"/><path class="cls-35" d="M572.54,410.89c-1.86-.08-3.83.73-5.49-.74C568.92,410,570.81,409.9,572.54,410.89Z" transform="translate(-333.07 -226.05)"/><path class="cls-5" d="M571.78,500.05c1.76.1,3.64-.68,5.21.76A9.25,9.25,0,0,1,571.78,500.05Z" transform="translate(-333.07 -226.05)"/><path class="cls-5" d="M580.71,501.07c1.78.07,3.68-.7,5.28.73A9.14,9.14,0,0,1,580.71,501.07Z" transform="translate(-333.07 -226.05)"/><path class="cls-8" d="M781,501.81c1.56-1.43,3.44-.66,5.2-.77A9.13,9.13,0,0,1,781,501.81Z" transform="translate(-333.07 -226.05)"/><path class="cls-5" d="M590.56,502.08c1.83.08,3.78-.73,5.43.73A9.64,9.64,0,0,1,590.56,502.08Z" transform="translate(-333.07 -226.05)"/><path class="cls-8" d="M772,502.79c1.61-1.41,3.52-.64,5.31-.72A9.58,9.58,0,0,1,772,502.79Z" transform="translate(-333.07 -226.05)"/><path class="cls-12" d="M798,412.84c1.66-1.48,3.63-.65,5.47-.74C801.74,413.06,799.87,413,798,412.84Z" transform="translate(-333.07 -226.05)"/><path class="cls-8" d="M762,503.78c1.65-1.41,3.59-.62,5.42-.7A10,10,0,0,1,762,503.78Z" transform="translate(-333.07 -226.05)"/><path class="cls-35" d="M544.74,410.09c1.79.06,3.69-.7,5.26.76A9.08,9.08,0,0,1,544.74,410.09Z" transform="translate(-333.07 -226.05)"/><path class="cls-37" d="M866,302l1,0c4.46,2.3,9.53,2.45,14.21,4,1.29.42,3.74,0,2.36,2.78-3.63,2.53-7.81,2.83-12,2.69-13.67-.46-27.32.59-40.93,1.24-12.45.6-24.93.65-37.39,1.39-13.92.82-27.87,1.24-41.79,2.1-11.63.71-23.3.41-35,1.24-21.56,1.54-43.2,1.93-64.8,2.65-16.93.56-33.83,1.8-50.79,2-15.43.2-30.9,1-46.33,2.14-9,.63-18,.7-26.94,1q-19,.58-37.92,1.51c-11,.53-21.94.58-32.91,1.43-9.26.72-18.61.25-27.9,1.24-2.8.29-5.7-.08-7.91-2.29-1.08-2.07.58-2.68,1.91-3.2,11.25-4.31,22.31-9.13,33.87-12.59,1.12-.33,2.18-.85,3.28,0,2.41,1.69,5.23,1.3,7.74.93,10.58-1.56,21.28-1.13,31.88-1.51,21.27-.74,42.53-2,63.81-2.5,18.27-.47,36.55-1.28,54.8-2.62,9.45-.69,19-.54,28.42-.89,12.46-.45,24.94-.91,37.39-1.47,20.42-.93,40.87-1.29,61.28-2.65,8.13-.54,16.3-.66,24.42-.9,12.47-.36,24.92-1.3,37.4-1.44,8.79-.1,17.6-.63,26.38-1.14,2.08-1.26,4.23-.07,6.34-.14l1.09,0a25.1,25.1,0,0,0,7.84,1.63c1.45,1.37,3.32.62,5,.95A74.43,74.43,0,0,0,866,302Z" transform="translate(-333.07 -226.05)"/><path class="cls-38" d="M835,297.14A3.56,3.56,0,0,1,831.2,299c-8.83-.66-17.57.86-26.36,1.07-19.75.48-39.52.84-59.21,2.17-8,.54-15.93.33-23.88.79-17.06,1-34.14,1.55-51.21,2.17-15.24.56-30.48,1.37-45.73,1.86-14.09.45-28.15,1.34-42.23,2-7.59.36-15.18.87-22.78.9-20.4.1-40.74,1.66-61.12,2.35-11.55.4-23.22-.08-34.74,1.65-2.14.32-4.52.3-4.9-2.81,7.64-3.56,16-4.88,23.93-7.4,3.11-.2,6-1.47,9.12-1.74l2-1c2.76.44,5.26-1.22,8-1l2-1c7.75-.5,15.31-2.46,23.05-3l2-1c4.74.69,9.29-1.27,14-1l2.92-1c1.71.64,3.42-.32,5.13,0l3-1c3.8,1,7.44-1.36,11.22-.51,5.75-1.47,11.75-.67,17.52-2,1.69,0,3.38,0,5.06-.05,2.17-.79,4.53-.16,6.7-.93,5.23.34,10.39-.48,15.57-1,3.54-.17,7.1.35,10.63-.31,3.24-.55,6.57.26,9.79-.66,6.09-.23,12.21.4,18.28-.53,4.9-.24,9.84.48,14.73-.47q21.9-.07,43.81,0c5.17,1,10.4.2,15.59.51,5.07.93,10.18.26,15.26.48,2.53.71,5.13.4,7.7.51a31,31,0,0,0,6.66.52c2.15.69,4.37.37,6.56.45,2.5-.18,4.92.73,7.42.54,1.9.64,3.86.41,5.81.46,4.81.36,9.6.92,14.4,1.36,3.34.55,6.76.47,10.09,1.13,3,.55,6.18.21,9.09,1.47l3,0a10.82,10.82,0,0,1,4,.45,29,29,0,0,1,3.34.53c1.57.05,3.14,0,4.71,0l1,0c3.65,2,7.84,1.42,11.69,2.48A1.47,1.47,0,0,1,835,297.14Z" transform="translate(-333.07 -226.05)"/><path class="cls-39" d="M884,308c-4.21-2.22-9-2.5-13.43-3.87-1.44-.44-2.9-.5-3.55-2.11a399.93,399.93,0,0,1,73.69,21.86c5.2,2.13,10.69,3.63,15.35,7a.91.91,0,0,1,.26.84c-.06.28-.12.43-.2.43-1.37.55-2.3-.15-3.13-1.11-4.56-2.23-9-4.71-14-5.92-4.9.06-9.06-2.44-13.47-4a70.08,70.08,0,0,0-7.35-2.68c-10.45-2.68-20.63-6.31-31.14-8.77A5,5,0,0,1,884,308Z" transform="translate(-333.07 -226.05)"/><path class="cls-40" d="M483.06,304.07l-24,7.09c-11.9,3.81-23.5,8.47-35.12,13A19,19,0,0,0,421,326c-3.81,3.37-8.8,4.52-13.12,6.93-4.49,2.51-9.15,4.74-13.82,6.92a5.18,5.18,0,0,1-3.49.62L390,340c1-2,3.08-2.42,4.81-3.32A396,396,0,0,1,483,303.12c.35.21.47.41.36.63S483.17,304.07,483.06,304.07Z" transform="translate(-333.07 -226.05)"/><path class="cls-41" d="M708,286.06H663c-1,.4-1.2-.08-1-1H708c.25.21.34.42.27.64S708.08,286.06,708,286.06Z" transform="translate(-333.07 -226.05)"/><path class="cls-42" d="M767,289.15l-8-.14c-.6-.66-1.56-.37-2.24-.84a.85.85,0,0,1,.2-1.08c10,1.07,20.13.71,30,2.9.34.21.46.42.35.63s-.23.32-.35.32L772,290C770.51,288.86,768.59,290.07,767,289.15Z" transform="translate(-333.07 -226.05)"/><path class="cls-43" d="M956,332c0-.38,0-.75.07-1.13a129.79,129.79,0,0,1,28,14.09l-.55.47c-3.25.46-5.58-1.74-8.23-2.94-5-2.27-9.67-5.06-14.73-7.13C958.74,334.55,956.68,334.16,956,332Z" transform="translate(-333.07 -226.05)"/><path class="cls-44" d="M708,286.06c0-.33,0-.65,0-1,5.68.39,11.46-1.15,17,.92-.44.75-1.45.31-2,.93C718,286.56,712.92,288.09,708,286.06Z" transform="translate(-333.07 -226.05)"/><path class="cls-45" d="M527.09,296c-7.6,1.6-15.16,3.61-23.05,3C511.66,297.52,519.19,295.34,527.09,296Z" transform="translate(-333.07 -226.05)"/><path class="cls-46" d="M662.06,285.09l1,1c-4.59,2-9.39.56-14.08.89-.81-.87-2.19,0-3-.95C651.24,284,656.7,285.42,662.06,285.09Z" transform="translate(-333.07 -226.05)"/><path class="cls-47" d="M583,290l-18,1.92c-.33-.2-.43-.4-.33-.59s.22-.3.33-.3c5.9-1.57,12-1,18-2,.33.21.44.43.33.64S583.13,290,583,290Z" transform="translate(-333.07 -226.05)"/><path class="cls-48" d="M646,286c1.06.12,2.24-.17,3,.95l-18.92.11c-1,.42-1.2-.08-1-1Z" transform="translate(-333.07 -226.05)"/><path class="cls-49" d="M834,297c-4.14-.41-8.56.35-12-2.91,4,.54,8.12.6,12,2q.49.3.33.6C834.2,296.85,834.09,297,834,297Z" transform="translate(-333.07 -226.05)"/><path class="cls-50" d="M610,288c-5.27,1.31-10.64,1-16,1.06a.59.59,0,0,1-.23-.66c.09-.21.18-.32.26-.32l16-.95c.33.19.44.39.33.58S610.12,288,610,288Z" transform="translate(-333.07 -226.05)"/><path class="cls-51" d="M723.06,286.93l2-.93,15.9.09c.06,1.76-.83,1.58-1.95,1Z" transform="translate(-333.07 -226.05)"/><path class="cls-52" d="M629.06,286.09l1,1c-2.87,1.86-6,.64-9.07.9a2.39,2.39,0,0,1-1-1C622.85,285.15,626,286.35,629.06,286.09Z" transform="translate(-333.07 -226.05)"/><path class="cls-53" d="M543.05,294c-4.66.5-9.18,2.79-14,1C533.71,294.64,538.26,292.75,543.05,294Z" transform="translate(-333.07 -226.05)"/><path class="cls-54" d="M866,302c-4.27.87-8.14-.69-12.06-2-.34-.2-.46-.4-.35-.61s.22-.32.33-.32C858,300.07,862.16,300.35,866,302Z" transform="translate(-333.07 -226.05)"/><path class="cls-55" d="M787,290.94V290c3.34.25,6.8-.66,10,1,.33.2.43.4.33.6s-.22.3-.33.3C793.58,292.36,790.29,291.66,787,290.94Z" transform="translate(-333.07 -226.05)"/><path class="cls-56" d="M739,287.05c.77-.08,1.53-.17,1.95-1,2.38.23,4.92-.89,7.11.9-.45.76-1.48.31-2,1C743.69,287.72,741.14,288.85,739,287.05Z" transform="translate(-333.07 -226.05)"/><path class="cls-57" d="M797,291.93V291c3.09.2,6.46-.9,9,2C802.92,293,799.86,293.26,797,291.93Z" transform="translate(-333.07 -226.05)"/><path class="cls-58" d="M565,291v.89c-3.66-.88-7.28,2.52-11,.12A37.13,37.13,0,0,1,565,291Z" transform="translate(-333.07 -226.05)"/><path class="cls-59" d="M483.06,304.07c0-.32,0-.63,0-.95,3.08.15,5.8-2.64,9-1.1A17.22,17.22,0,0,1,483.06,304.07Z" transform="translate(-333.07 -226.05)"/><path class="cls-60" d="M381,345c2.36-2.82,5.65-4,9-5l.05.06c-1.09,4.5-4.83,4.86-8.45,5.41Z" transform="translate(-333.07 -226.05)"/><path class="cls-61" d="M993,350.13l-8-3.2c-.94-.3-1.5-.8-1.09-1.88l.1-.11C987.31,346.12,990.74,347.09,993,350.13Z" transform="translate(-333.07 -226.05)"/><path class="cls-62" d="M594,288.08l0,1c-1.78,1.69-4,.68-6,.94-.35-.22-.46-.44-.34-.66s.23-.33.35-.33C589.81,287.28,592,288.28,594,288.08Z" transform="translate(-333.07 -226.05)"/><path class="cls-63" d="M620,287l1,1L610,288v-.87Z" transform="translate(-333.07 -226.05)"/><path class="cls-64" d="M502.07,300c-2.62.68-5.08,2.7-8,1C496.65,300,499.25,299.1,502.07,300Z" transform="translate(-333.07 -226.05)"/><path class="cls-65" d="M746.05,288c.43-.79,1.2-.88,2-1l8.94.1c0,.31,0,.63,0,.94a4.37,4.37,0,0,1-4,.11Z" transform="translate(-333.07 -226.05)"/><path class="cls-66" d="M849,299c-2.85.11-5.65,0-8-2a21.64,21.64,0,0,1,8.92,2A.53.53,0,0,1,849,299Z" transform="translate(-333.07 -226.05)"/><path class="cls-67" d="M551.1,293c-1.71,1.41-3.41,1.56-5.13,0C547.68,292.34,549.39,291.12,551.1,293Z" transform="translate(-333.07 -226.05)"/><path class="cls-68" d="M813,294c-1.42,0-3,.48-4.08-.94,1.33-1.43,2.69-1.37,4.05,0,.34.21.46.43.36.65S813.12,294,813,294Z" transform="translate(-333.07 -226.05)"/><path class="cls-69" d="M821,294c-1.43,1.69-3.35.74-5,.93-.53-1.85,1.45-1.06,1.93-1.85C819.05,293,820.23,292.89,821,294Z" transform="translate(-333.07 -226.05)"/><path class="cls-70" d="M377.1,348.13,376,348c1.06-2,2.93-2.67,5-3l0,0C381.14,347.84,379.37,348.31,377.1,348.13Z" transform="translate(-333.07 -226.05)"/><path class="cls-71" d="M834,297c0-.31,0-.61,0-.91,2.06-.08,4.11-.14,6,1-1.61,1.78-3.32-.74-5,.11Z" transform="translate(-333.07 -226.05)"/><path class="cls-72" d="M817.9,293.1,816,295l-3-1c0-.34,0-.67,0-1Z" transform="translate(-333.07 -226.05)"/><path class="cls-73" d="M588,289c0,.34,0,.67,0,1h-5v-1C584.69,289,586.35,289,588,289Z" transform="translate(-333.07 -226.05)"/><path class="cls-74" d="M849,299l.94,0,4,.09c0,.31,0,.62,0,.93C852.29,299.81,850.38,300.67,849,299Z" transform="translate(-333.07 -226.05)"/><path class="cls-75" d="M377.1,348.13c1.32-1,3.27-1.28,4-3.11,3.34-1,6.64-2.18,9-5l3-.94c8.81.1,17.65-.22,26.38-.94,11.46-.95,23-.94,34.4-1.4,21.11-.84,42.23-1.75,63.35-2.52,19.43-.71,38.9-1.15,58.32-2.6,8-.59,16-.87,23.93-1,22.3-.33,44.58-1.44,66.84-2.45,26.58-1.19,53.2-1.68,79.75-3.61,8.79-.65,17.63-.57,26.44-.88,19.62-.69,39.23-1.66,58.85-2.38,28.09-1,56.2-2,84.28-3.38a5.63,5.63,0,0,0,3.32-.79l20,7.93c-3.75,3.74-9,2.68-13.09,2.63-21.81-.23-43.49,2.28-65.28,2.55-15.22.2-30.48,1.14-45.72,1.76-17.33.72-34.63,2.1-52,2-15.35-.07-30.66,1.27-45.94,2.28-11.08.73-22.17,0-33.27,1.42-9.57,1.19-19.48-.45-29.08.6-7.59.82-15.2.68-22.78,1.32-9.29.78-18.73,1-28.09,1.2-22,.46-43.92,2.24-65.93,2.24-13.94,0-27.84,1.52-41.78,2.05-17.57.67-35.18,1-52.7,2.17-10.58.71-21.19.54-31.78,1.28-9.65.67-19.4,1.54-29.15,1.39C380.39,350,378.25,350.43,377.1,348.13Z" transform="translate(-333.07 -226.05)"/><path class="cls-16" d="M797,357c.36,3.55,1.77,6.45,4.95,8.38s1.06,2.69-.82,3.38a5.21,5.21,0,0,1-2,.23c-10.63-.31-21.22.67-31.82.94-20.55.52-41.07,1.79-61.63,2.29-15.55.37-31.11,1.32-46.67,1.92-17.21.66-34.43,1.41-51.65,2-15.06.56-30.09,1.86-45.17,1.82-2,0-4.1.35-5.18-2-1.26-3.72-.32-7,2-10,3.75,2.67,7.85,1,11.85,1.09,14.12.36,28.16-1.61,42.3-1.21,4.57.12,9.17-1.23,13.84-.9,2.15.15,3.21-.52,2.07-2.91a11.07,11.07,0,0,1-1-3.79c-.85-10.17,8.83-17.34,20.23-15L657,345c2,.87,4.21,1.32,5.31,3.5a12.83,12.83,0,0,1,1.6,9.61c-.83,3.39.84,4.81,3.91,4.62,8.47-.53,17-.12,25.45-.62,9.09-.54,18.2-1.49,27.28-1.44,11.64.06,23.37.23,34.85-.69,11.13-.88,22.22-1.14,33.34-1.52C791.58,358.37,794,356.36,797,357Z" transform="translate(-333.07 -226.05)"/><path class="cls-2" d="M661,348l-4-3c15.37-1.35,30.78-1.74,46.2-2.11,16.83-.41,33.64-1.43,50.46-2,15.91-.59,31.85-1,47.69-2.15,10.58-.77,21.19-.6,31.76-1.24,9-.54,18-1.66,27.07-1.39,13.61.4,27.15-1.1,40.75-1.31,15.44-.24,30.87-1.65,46.35-1.76,2.09,0,4.46.6,5.67-2l3,1,5,2.12c-.32,3.78-3.46,3.44-5.92,3.94-9.54,1.93-19.23,1.1-28.85,1.38-13.79.41-27.57,1.54-41.33,1.6-9.3.05-18.54,2.3-27.85.67a5.56,5.56,0,0,0-2,.07c-13.83,2.66-27.82.94-41.73,1.59-4.32.2-8.62.13-12.93.85-4.58.76-9.22,1.27-13.9.4a16,16,0,0,0-5.48,0c-19.12,3.19-38.46,1.66-57.68,2.73q-13.69.76-27.37,1.5c-8.91.48-17.87.54-26.8,1.3A12.82,12.82,0,0,1,661,348Z" transform="translate(-333.07 -226.05)"/><path class="cls-15" d="M559,366q-1,5-2,10c-6.3,5.44-13.87,5.68-21.51,4.83A11.22,11.22,0,0,1,526,374c-2-2.81-.56-6-1-9,1.75-6.1,7.15-7.09,12.14-8.51C545,354.26,555.88,359.07,559,366Z" transform="translate(-333.07 -226.05)"/><path class="cls-76" d="M752.49,397c-4.8,0-8.74-.89-12-4-5.38-5.17-4.69-11.62,1.8-15.18a20.56,20.56,0,0,1,19.06-.65c4.09,1.81,7,4.7,6.53,9.57s-3.72,7.71-8.14,9C757.3,396.55,754.71,397.51,752.49,397Z" transform="translate(-333.07 -226.05)"/><path class="cls-11" d="M749,374a5.79,5.79,0,0,1,7,0Z" transform="translate(-333.07 -226.05)"/><path class="cls-2" d="M661,348c7.76,1.14,15.45-.85,23.06-.72,16.39.3,32.62-1.86,49-1.83,9,0,18.24-1.5,26.87-.68,10.89,1,21.11-2.52,32-1.43,9,.9,18.69-1.78,28.13-1.29,7.22.37,14.4-1.9,21.63-.12a9.1,9.1,0,0,0,4.94-.12c6.24-2.25,12.66-1.07,19-1.41,7.61-.4,15.25-1.53,22.81-1.14,8.27.43,16.35-1.48,24.66-.73,4.25.39,8.87-.34,13.32-.55,10-.49,20.05.47,30-1.55,1.92-.38,3.51-.59,4.52-2.35,7.81,3.36,15,8.05,23,11l1.09,1.88c-1.65,2.1-4,2.16-6.35,2.08-13.14-.5-26.23.88-39.35,1.21-16.23.41-32.49,1.13-48.71,2-17.88.93-35.8,1.05-53.65,2.4a3.54,3.54,0,0,1-3.61-2A8.25,8.25,0,0,0,830,349c-2-1-3.21-3.57-6-3l-.71,0c-6.88-1.89-13.62-2.33-20.16,1.4-2.44,1.39-4.23,3.07-4.8,5.88A4.63,4.63,0,0,1,797,355v2a12.76,12.76,0,0,1-7.25,2.95c-11.56.29-23.08.72-34.64,1.6-10.88.82-22.06.47-33.09.62-17.75.24-35.48,1.48-53.22,2.43-6.08.33-7.62-1.19-6-7.14C663.71,353.92,661.63,351.14,661,348Z" transform="translate(-333.07 -226.05)"/><path class="cls-77" d="M797,355c0-.66,0-1.32,0-2,8.15-9,16.88-11.24,27-7h0c.63,1.77,2.55,2,3.7,3.21,4.44,4.55,2.41,12.91-3.84,15.7-10.3,4.6-20.28,1.32-25.63-8.39A11.61,11.61,0,0,0,797,355Z" transform="translate(-333.07 -226.05)"/><path class="cls-78" d="M918.94,317.16c-1.66,2.93-4.74,2.86-7.31,2.76-12.81-.49-25.55.94-38.33,1.28-18.06.48-36.13,1.25-54.19,2-15.57.61-31.13,1.37-46.7,2q-24.6,1-49.2,2c-15.9.62-31.8,1.35-47.7,2q-25.1,1-50.2,2c-16.23.65-32.47,1.27-48.69,2q-24.6,1.07-49.2,2c-16.57.63-33.13,1.33-49.7,2-16.9.69-33.83,1.05-50.68,2.16-9.57.62-19.26-.6-28.75,1.6-1.86.44-4.09.49-5.21-1.84,9.28-4.45,18-10,27.93-13.13,3.1,2.64,6.87,2.29,10.45,2,15.35-1.32,30.74-1.45,46.12-2.05,17.23-.67,34.46-1.4,51.7-2.05,16.07-.61,32.15-1.23,48.2-2.12,7.33-.41,14.81-1,22.13-1.25,7.17-.28,14.45-1,21.71-.5,6.64.49,13.19-1.39,19.73-1.55s12.81-.29,19.21-.29c13.71,0,27.46-.52,41.09-1.12,16-.7,32.07-.95,48-2.33,12.12-1.05,24.28-.27,36.44-2.15,6.79-1,14.29-.51,21.46-.5,22.69,0,45.3-2.34,68-2.12,2.9,0,5.8-1.23,8.71-1.89,7.66.65,14.77,3.54,22.1,5.51C910.37,314.7,914.65,316,918.94,317.16Z" transform="translate(-333.07 -226.05)"/><path class="cls-37" d="M753,288.14l4-.11,2,1C757,288.73,754.84,289.77,753,288.14Z" transform="translate(-333.07 -226.05)"/><path class="cls-37" d="M767,289.15c1.69.08,3.53-.68,5,.86C770.34,289.8,768.49,290.64,767,289.15Z" transform="translate(-333.07 -226.05)"/><path class="cls-79" d="M645.56,345.05c3.46-.48,6.65.53,9.91,2.07a8.7,8.7,0,0,1,5.44,8.16c.13,4.34-2.8,7.14-6.3,8.81-7.28,3.46-14.63,2.78-21.3-1.59-6-3.95-4.87-12,2-15.61A17.69,17.69,0,0,1,645.56,345.05Z" transform="translate(-333.07 -226.05)"/><path class="cls-80" d="M530.37,362.15c6.9-4.69,14-4.22,21.31-1a4.57,4.57,0,0,1,3.39,4c.53,3.47-1.33,5.72-3.9,7.6-6.94,3.2-13.73,3-20.32-1a6,6,0,0,1-2.69-6.43A5.47,5.47,0,0,1,530.37,362.15Z" transform="translate(-333.07 -226.05)"/><path class="cls-81" d="M530.37,362.15l-1.5,2.86c-1.18,3.63.48,6.05,3.5,7.7,4.12,2.24,8.38,3.69,13.2,2.15,1.65-.53,3.46-1.27,5.26-.21,1.25,2.19-1.36,1.45-1.8,2.36h0a18,18,0,0,1-15,0c-4.77-.65-6.78-4.07-7.42-8.21C526.16,366,527,363.18,530.37,362.15Z" transform="translate(-333.07 -226.05)"/><path class="cls-82" d="M549,377l2-2c-.66-1.61.62-2.45,1.48-3.3a6.33,6.33,0,0,0,1.78-6.68l-2.59-3.83c4.56.44,5.55,3.82,5.23,7.37C556.48,373.08,554,376.4,549,377Z" transform="translate(-333.07 -226.05)"/><path class="cls-82" d="M534,377a28.87,28.87,0,0,0,15,0A13.49,13.49,0,0,1,534,377Z" transform="translate(-333.07 -226.05)"/><path class="cls-80" d="M752.62,391.9c-3.28-.39-6.6-.65-9.49-2.55-4.54-3-4.69-7.72,0-10.35a18.35,18.35,0,0,1,18.55-.13c4.94,2.66,4.82,7.58,0,10.61C758.92,391.23,755.76,391.46,752.62,391.9Z" transform="translate(-333.07 -226.05)"/><path class="cls-9" d="M824,346A46.12,46.12,0,0,0,812.78,345c-5.33.17-10.08,1.36-13,6.38A3.17,3.17,0,0,1,797,353C798.91,343,818.4,340.72,824,346Z" transform="translate(-333.07 -226.05)"/><path class="cls-83" d="M801.89,351c7.54-7.88,21.23-6.8,25.25,2,.6,1.7-.17,3.14-.85,4.61a17.32,17.32,0,0,1-23.86-.21A7.54,7.54,0,0,1,801.89,351Z" transform="translate(-333.07 -226.05)"/><path class="cls-84" d="M801.89,351a8.16,8.16,0,0,0,1,6.15c6.17,6.66,17.65,6.5,23-.34.42-1.27.83-2.54,1.25-3.82,1.38,4.91,0,7.9-5.25,9.85a20.56,20.56,0,0,1-16.39-.64C801.09,360.1,799.89,356.08,801.89,351Z" transform="translate(-333.07 -226.05)"/><path class="cls-85" d="M645.19,345.94a15.56,15.56,0,0,1,10.06,2.7c3.77,2.75,3.74,6.66.08,9.55-4.83,3.81-14.7,3.91-19.79.19-4.12-3-4-7.44.26-10.13A15.87,15.87,0,0,1,645.19,345.94Z" transform="translate(-333.07 -226.05)"/><path class="cls-86" d="M542,370.75c-1.44-.2-2.27-.26-3.08-.44-2.82-.66-7-.65-6.63-4.42.29-3.29,4.24-3.64,7.22-3.93a15.81,15.81,0,0,1,8.77,1.14c1.33.66,2.83,1.33,2.79,3.13s-1.5,2.55-2.91,3C546,369.92,543.7,370.35,542,370.75Z" transform="translate(-333.07 -226.05)"/><path class="cls-87" d="M554.27,365c2.72,4.57-1.12,7-3.26,10-5.08.83-10,2.88-15.36.84-6-2.29-8.3-5.49-6.78-10.8a8.06,8.06,0,0,0,2.21,5.84c6.88,4.66,14.17,4.95,19.79.78C552.87,369.86,554.56,367.93,554.27,365Z" transform="translate(-333.07 -226.05)"/><path class="cls-88" d="M550.87,371.63c-4.34,5.29-14.63,4.89-19.79-.78A21.32,21.32,0,0,0,550.87,371.63Z" transform="translate(-333.07 -226.05)"/><path class="cls-86" d="M752.64,388.46c-3.75-.71-9.3.1-9.29-4.59,0-4.14,5.36-4.12,8.91-4.11s9.26-.29,9.37,4.13C761.74,388.54,756.07,387.71,752.64,388.46Z" transform="translate(-333.07 -226.05)"/><path class="cls-89" d="M814.34,357.93c-3.43-.94-9.19-.05-9.22-4.57s5.48-4.37,9.23-4.36,9.16,0,9.15,4.48C823.48,357.53,817.94,357.07,814.34,357.93Z" transform="translate(-333.07 -226.05)"/><path class="cls-90" d="M825.89,356.81c-.92,4.82-5.16,5-8.63,5.87-5.64,1.44-12.08-1.23-14.33-5.53C810.88,362.32,818.42,362.21,825.89,356.81Z" transform="translate(-333.07 -226.05)"/><path class="cls-89" d="M645.38,348.84c3.68.44,9,.25,9.11,4.25.09,4.64-5.53,4.5-9.11,4.54s-9.28.16-9.24-4.36S641.75,349.34,645.38,348.84Z" transform="translate(-333.07 -226.05)"/></svg>